:SAMPLES-PER-SECOND 30
:FULLY-SPECIFIED
:DEGREES
587
root  35.8785 29.8168 27.3382 4.38954 41.5103 -1.38007
RightUpLeg  -46.8302 -3.28095 -2.91267
RightLeg  89.9551 0.121917 0.122363
RightFoot  1.66827 0.00645265 0.0799675
RightToes  -30.9354 -0.150415 -0.258415
Spine  6.23841 -1.94355 -5.04977
Spine1  12.5159 -4.25316 -7.8177
HEad  -54.5468 7.38185 -4.34392
LeftShoulder1  -1.94126e-019 -3.10601e-018 -2.51263e-017
LeftArm  -29.7413 -0.748967 -47.8103
LeftForeArm  24.1907 -22.8432 -3.53344
LeftHand  -0.228083 3.4447 13.072
RightShoulder  -4.96962e-017 0 -2.36833e-017
RightArm  -19.6373 -18.0922 76.021
RightForeArm  57.511 25.2305 2.48888
RightHand  -0.556953 4.2224 -6.99366
LeftUpLeg  -45.764 6.57694 8.93255
LeftLeg  60.7932 3.01165 4.63175
LeftFoot  -0.364906 -0.000483847 0.00955942
LeftToes  -37.8602 1.31378e-006 1.14341e-007
588
root  36.5997 30.3148 28.4671 4.80453 42.058 -1.50832
RightUpLeg  -51.1601 -3.0007 -1.46599
RightLeg  80.0685 -0.571477 -2.74518
RightFoot  1.22059 0.00590478 -0.0125893
RightToes  -29.4871 -0.140405 -0.248386
Spine  5.8904 -1.96056 -4.50629
Spine1  11.795 -4.40339 -6.99313
HEad  -50.6414 9.06905 -5.79377
LeftShoulder1  -1.94126e-019 -3.10601e-018 -2.51263e-017
LeftArm  -27.2716 -2.76165 -48.886
LeftForeArm  22.3766 -26.8267 -4.45907
LeftHand  -0.401846 1.32987 11.4346
RightShoulder  -4.96962e-017 0 -2.36833e-017
RightArm  -22.7431 -16.8546 74.8463
RightForeArm  56.2888 22.9937 2.09914
RightHand  -0.474739 2.93323 -6.84349
LeftUpLeg  -43.3834 8.3598 8.74644
LeftLeg  59.48 2.88247 4.21903
LeftFoot  -1.07628 -0.00258608 -0.113804
LeftToes  -37.7831 1.31378e-006 1.14341e-007
589
root  37.2746 30.7048 29.6208 4.44824 42.5042 -2.84471
RightUpLeg  -52.7278 -1.02765 -0.923151
RightLeg  65.4986 -1.19624 -2.35962
RightFoot  5.83201 0.0388939 -0.213344
RightToes  -31.8611 -0.156945 -0.264691
Spine  5.25044 -1.80143 -3.38805
Spine1  10.4108 -3.83979 -5.47532
HEad  -47.0507 11.4797 -6.80935
LeftShoulder1  -1.94126e-019 -3.10601e-018 -2.51263e-017
LeftArm  -23.6587 -2.29092 -50.5441
LeftForeArm  24.45 -34.0245 -6.04818
LeftHand  -0.639441 -2.0408 10.1805
RightShoulder  -4.96962e-017 0 -2.36833e-017
RightArm  -23.5205 -16.5335 72.5089
RightForeArm  55.366 22.2717 1.99589
RightHand  -0.512377 2.15811 -8.06535
LeftUpLeg  -42.1572 9.25175 9.84325
LeftLeg  59.8012 3.49237 5.17084
LeftFoot  -0.066445 -0.000102359 -0.0149809
LeftToes  -41.8478 1.31378e-006 1.14341e-007
590
root  38.112 30.9136 30.9045 3.7886 43.5897 -3.43028
RightUpLeg  -50.3213 1.42217 -2.96464
RightLeg  48.0573 0.457257 0.404472
RightFoot  9.57887 0.0336268 0.132777
RightToes  -29.0207 -0.137236 -0.245102
Spine  4.99951 -1.88556 -2.57548
Spine1  9.84579 -4.06417 -4.00336
HEad  -45.06 12.5909 -6.86117
LeftShoulder1  -1.94126e-019 -3.10601e-018 -2.51263e-017
LeftArm  -19.5709 -0.508733 -52.3079
LeftForeArm  26.9475 -42.5926 -8.3787
LeftHand  -0.698071 -2.74263 10.183
RightShoulder  -4.96962e-017 0 -2.36833e-017
RightArm  -24.4212 -16.4096 69.8706
RightForeArm  53.8382 22.7751 2.15049
RightHand  -0.539275 2.0134 -8.63274
LeftUpLeg  -39.6468 10.1364 10.0705
LeftLeg  59.7719 5.13869 7.57672
LeftFoot  -1.68236 -0.00678942 -0.300875
LeftToes  -40.3443 1.31378e-006 1.14341e-007
591
root  39.2131 30.8985 32.421 2.6194 45.056 -3.04262
RightUpLeg  -44.7541 3.57483 -5.92249
RightLeg  32.4138 3.30966 1.80014
RightFoot  12.758 -0.0381105 0.857854
RightToes  -34.7722 -0.178125 -0.283728
Spine  4.65767 -1.93998 -1.92103
Spine1  9.15155 -4.19871 -2.83196
HEad  -41.2457 12.9143 -6.37497
LeftShoulder1  -1.94126e-019 -3.10601e-018 -2.51263e-017
LeftArm  -16.2729 1.48822 -54.8415
LeftForeArm  27.9001 -47.2199 -9.98099
LeftHand  -0.682601 -2.87115 9.81668
RightShoulder  -4.96962e-017 0 -2.36833e-017
RightArm  -25.3741 -16.9711 67.0587
RightForeArm  52.3754 22.8426 2.22263
RightHand  -0.540201 1.82936 -8.85346
LeftUpLeg  -34.5558 11.503 9.98324
LeftLeg  58.543 6.41001 9.00132
LeftFoot  -6.75017 -0.0880464 -1.33133
LeftToes  -35.227 1.31378e-006 1.14341e-007
592
root  40.3333 30.5534 33.9284 0.550522 47.0666 -2.76614
RightUpLeg  -42.7223 0.892934 -5.24427
RightLeg  38.1104 6.42284 4.36502
RightFoot  13.3661 -0.153943 1.80879
RightToes  -36.5181 -0.191283 -0.294621
Spine  3.89899 -2.01731 -1.27628
Spine1  7.6569 -4.27955 -1.72169
HEad  -35.1631 12.3737 -5.27862
LeftShoulder1  -1.94126e-019 -3.10601e-018 -2.51263e-017
LeftArm  -14.0413 3.61675 -58.0531
LeftForeArm  28.6642 -48.366 -10.4066
LeftHand  -0.635018 -3.43076 8.60526
RightShoulder  -4.96962e-017 0 -2.36833e-017
RightArm  -26.8837 -18.0798 64.1668
RightForeArm  51.8715 22.6442 2.21362
RightHand  -0.550489 1.66492 -9.21574
LeftUpLeg  -30.5143 9.2078 11.4372
LeftLeg  60.664 5.70628 8.68596
LeftFoot  -8.5827 -0.127739 -1.54065
LeftToes  -41.6041 1.31378e-006 1.14341e-007
593
root  41.1384 30.3652 35.2544 -4.66963 47.4491 -5.53752
RightUpLeg  -41.1299 -0.899555 -2.16608
RightLeg  45.9057 6.42454 5.76319
RightFoot  8.93818 -0.0663587 1.33954
RightToes  -33.0142 -0.165218 -0.27236
Spine  4.20856 -1.72534 0.242915
Spine1  8.19784 -3.65329 0.932607
HEad  -33.4093 12.7233 -5.58809
LeftShoulder1  -1.94126e-019 -3.10601e-018 -2.51263e-017
LeftArm  -14.129 5.10173 -62.2715
LeftForeArm  29.5637 -48.4494 -10.3831
LeftHand  -0.543199 -3.15932 7.61665
RightShoulder  -4.96962e-017 0 -2.36833e-017
RightArm  -29.7387 -16.2288 61.2829
RightForeArm  51.5548 21.1957 1.94891
RightHand  -0.518154 0.989307 -9.54722
LeftUpLeg  -28.612 5.67406 15.1408
LeftLeg  66.9204 4.93413 9.66243
LeftFoot  -3.52597 -0.0263856 -0.695682
LeftToes  -55.276 1.31378e-006 1.14341e-007
594
root  41.9218 30.4145 36.3463 -5.11729 47.3134 -5.05299
RightUpLeg  -38.7685 -2.22975 -1.54859
RightLeg  47.566 6.80041 6.45838
RightFoot  4.47165 -0.0105391 0.754538
RightToes  -31.526 -0.15457 -0.262431
Spine  3.93572 -1.40292 0.780593
Spine1  7.69854 -2.89704 1.81094
HEad  -33.0367 13.0846 -5.82609
LeftShoulder1  -1.94126e-019 -3.10601e-018 -2.51263e-017
LeftArm  -14.2783 7.90772 -65.6019
LeftForeArm  28.4273 -48.1696 -10.3704
LeftHand  -0.536027 -2.05665 8.5509
RightShoulder  -4.96962e-017 0 -2.36833e-017
RightArm  -33.6273 -15.0507 60.226
RightForeArm  49.7249 20.3547 1.86935
RightHand  -0.485709 -0.428665 -11.3718
LeftUpLeg  -29.4027 5.23851 14.9158
LeftLeg  72.0295 5.26773 13.001
LeftFoot  3.83169 -0.0270046 0.968845
LeftToes  -56.7959 1.31378e-006 1.14341e-007
595
root  42.6036 30.7608 37.2288 -4.53075 47.5276 -3.99382
RightUpLeg  -36.9933 -0.564181 -2.2531
RightLeg  48.4025 5.44976 5.33078
RightFoot  2.47559 0.00221507 0.386164
RightToes  -30.9861 -0.150464 -0.258603
Spine  3.29624 -1.15762 0.926709
Spine1  6.4637 -2.35095 2.12248
HEad  -30.8733 12.5825 -5.62498
LeftShoulder1  -1.94126e-019 -3.10601e-018 -2.51263e-017
LeftArm  -14.5308 11.1202 -68.6781
LeftForeArm  27.3961 -45.9797 -9.60297
LeftHand  -0.523026 -1.85841 8.5619
RightShoulder  -4.96962e-017 0 -2.36833e-017
RightArm  -36.7633 -14.9628 60.3649
RightForeArm  47.085 19.3257 1.79198
RightHand  -0.374433 -2.40182 -14.2829
LeftUpLeg  -29.7566 6.83338 13.0794
LeftLeg  72.8529 6.45334 16.4375
LeftFoot  2.72948 -0.0180178 0.917857
LeftToes  -32.0937 1.31378e-006 1.14341e-007
596
root  43.2669 31.3677 37.8312 -3.94066 48.0955 -2.54904
RightUpLeg  -33.5653 0.0483408 -3.40754
RightLeg  46.2348 5.06067 4.59297
RightFoot  1.89153 0.00307488 0.301355
RightToes  -31.4087 -0.148511 -0.256781
Spine  2.9433 -1.02064 0.875156
Spine1  5.76983 -2.04343 2.04782
HEad  -28.4501 11.5815 -5.37702
LeftShoulder1  -1.94126e-019 -3.10601e-018 -2.51263e-017
LeftArm  -16.0781 13.7399 -71.6979
LeftForeArm  27.2808 -42.2895 -8.32625
LeftHand  -0.448599 -2.74511 6.62692
RightShoulder  -4.96962e-017 0 -2.36833e-017
RightArm  -38.4401 -15.3384 61.1224
RightForeArm  44.3399 19.2358 1.89458
RightHand  -0.236044 -3.67228 -15.255
LeftUpLeg  -28.6588 7.24682 10.1833
LeftLeg  67.2526 5.79169 11.4598
LeftFoot  -3.96844 -0.0346643 -0.838986
LeftToes  -28.5989 1.31378e-006 1.14341e-007
597
root  43.8405 31.9864 38.2798 -3.40593 49.1493 -2.67726
RightUpLeg  -30.4322 -0.754313 -3.50092
RightLeg  42.1848 5.22652 4.11719
RightFoot  1.89859 0.000577416 0.30352
RightToes  -31.7851 -0.148215 -0.256503
Spine  2.42823 -0.856979 1.16572
Spine1  4.78031 -1.67442 2.62966
HEad  -27.258 9.8582 -5.24784
LeftShoulder1  -1.94126e-019 -3.10601e-018 -2.51263e-017
LeftArm  -17.8997 16.27 -74.8656
LeftForeArm  27.1303 -39.3138 -7.42181
LeftHand  -0.421095 -2.65459 6.29816
RightShoulder  -4.96962e-017 0 -2.36833e-017
RightArm  -37.8964 -16.7089 61.2554
RightForeArm  43.6321 19.9369 2.05526
RightHand  -0.27564 -3.14136 -13.7469
LeftUpLeg  -27.995 7.21549 7.55243
LeftLeg  57.0129 5.42515 7.22559
LeftFoot  -4.41036 -0.0299759 -0.616914
LeftToes  -36.1559 1.31378e-006 1.14341e-007
